<svg width="1200" height="800" viewBox="0 0 1200 800" fill="none" xmlns="http://www.w3.org/2000/svg">
  <defs>
    <linearGradient id="bg" x1="100" y1="40" x2="1080" y2="760" gradientUnits="userSpaceOnUse">
      <stop stop-color="#101722" />
      <stop offset="1" stop-color="#1C1A2A" />
    </linearGradient>
    <linearGradient id="meter" x1="0" y1="0" x2="1" y2="1">
      <stop stop-color="#69D2E7" />
      <stop offset="1" stop-color="#F6C85F" />
    </linearGradient>
  </defs>

  <rect width="1200" height="800" rx="36" fill="url(#bg)" />
  <rect x="60" y="60" width="1080" height="680" rx="28" fill="#101522" stroke="#2B3A52" />

  <rect x="100" y="110" width="430" height="280" rx="18" fill="#0B0F18" stroke="#3F516F" />
  <rect x="140" y="150" width="120" height="200" rx="10" fill="#101B2B" stroke="#415A7C" />
  <rect x="280" y="150" width="120" height="200" rx="10" fill="#101B2B" stroke="#415A7C" />
  <rect x="420" y="150" width="70" height="200" rx="10" fill="#101B2B" stroke="#415A7C" />

  <rect x="560" y="110" width="540" height="280" rx="18" fill="#0B0F18" stroke="#3F516F" />
  <path d="M590 250C640 130 690 370 740 250C790 130 840 370 890 250C940 130 990 370 1040 250" stroke="url(#meter)" stroke-width="5" />
  <circle cx="640" cy="280" r="32" fill="#182236" stroke="#4C6E98" />
  <circle cx="760" cy="280" r="32" fill="#182236" stroke="#4C6E98" />
  <circle cx="880" cy="280" r="32" fill="#182236" stroke="#4C6E98" />
  <circle cx="1000" cy="280" r="32" fill="#182236" stroke="#4C6E98" />

  <rect x="100" y="430" width="1000" height="260" rx="18" fill="#0B0F18" stroke="#3F516F" />
  <rect x="130" y="460" width="940" height="200" rx="14" fill="#101B2B" stroke="#415A7C" />
  <path d="M150 560C210 470 270 650 330 560C390 470 450 650 510 560C570 470 630 650 690 560C750 470 810 650 870 560C930 470 990 650 1050 560" stroke="url(#meter)" stroke-width="4" />

  <text x="110" y="96" fill="#D8E4F2" font-family="Segoe UI, sans-serif" font-size="22">Generative Granular Synthesizer VST</text>
</svg>

